<?xml version="1.0" encoding="UTF-8"?> <svg xmlns="http://www.w3.org/2000/svg" width="27.588" height="27.588" viewBox="0 0 27.588 27.588"><defs><style>.a{fill:#fff;}</style></defs><path class="a" d="M24.632,32H2.956A2.956,2.956,0,0,0,0,34.956V56.632a2.956,2.956,0,0,0,2.956,2.956h8.452V50.209H7.528V45.794h3.88V42.429c0-3.827,2.278-5.941,5.768-5.941a23.5,23.5,0,0,1,3.419.3v3.756H18.669a2.207,2.207,0,0,0-2.489,2.385v2.867h4.235l-.677,4.415H16.18v9.379h8.452a2.956,2.956,0,0,0,2.956-2.956V34.956A2.956,2.956,0,0,0,24.632,32Z" transform="translate(0 -32)"></path></svg> 