<?xml version="1.0" encoding="UTF-8"?> <svg xmlns="http://www.w3.org/2000/svg" width="27.794" height="27.794" viewBox="0 0 27.794 27.794"><defs><style>.a{fill:#fff;}</style></defs><path class="a" d="M13.9,42.588a3.309,3.309,0,1,0,3.31,3.31,3.309,3.309,0,0,0-3.31-3.31Zm7.737-2.544a3.35,3.35,0,0,0-1.887-1.887c-1.3-.514-4.4-.4-5.85-.4s-4.544-.12-5.851.4a3.35,3.35,0,0,0-1.887,1.887c-.514,1.3-.4,4.408-.4,5.852s-.115,4.546.4,5.853a3.35,3.35,0,0,0,1.887,1.887c1.3.514,4.4.4,5.851.4s4.544.12,5.85-.4a3.35,3.35,0,0,0,1.887-1.887c.518-1.3.4-4.408.4-5.852s.119-4.545-.4-5.852ZM13.9,50.984A5.081,5.081,0,1,1,17.5,49.5a5.087,5.087,0,0,1-3.6,1.488Zm5.3-9.2a1.181,1.181,0,1,1,.842-.346,1.187,1.187,0,0,1-.842.346ZM24.816,32H2.978A2.978,2.978,0,0,0,0,34.978V56.816a2.978,2.978,0,0,0,2.978,2.978H24.816a2.978,2.978,0,0,0,2.978-2.978V34.978A2.978,2.978,0,0,0,24.816,32ZM23.754,49.992a5.9,5.9,0,0,1-1.6,4.157,5.906,5.906,0,0,1-4.157,1.6c-1.638.092-6.551.092-8.189,0a5.914,5.914,0,0,1-4.157-1.6,5.885,5.885,0,0,1-1.6-4.157c-.092-1.639-.092-6.552,0-8.189a5.884,5.884,0,0,1,1.6-4.157,5.917,5.917,0,0,1,4.157-1.6c1.638-.092,6.551-.092,8.189,0a5.907,5.907,0,0,1,4.157,1.6,5.906,5.906,0,0,1,1.6,4.16C23.846,43.443,23.846,48.351,23.754,49.992Z" transform="translate(0 -32)"></path></svg> 