<?xml version="1.0" encoding="UTF-8"?> <svg xmlns="http://www.w3.org/2000/svg" width="40.521" height="41" viewBox="0 0 40.521 41"><defs><style>.a{fill:#999;}.b{fill:#fff;}</style></defs><g transform="translate(-418.04 -219.02)"><path class="a" d="M458.562,255.921a4.091,4.091,0,0,1-4.084,4.1H422.124a4.091,4.091,0,0,1-4.084-4.1v-32.8a4.091,4.091,0,0,1,4.084-4.1h32.353a4.091,4.091,0,0,1,4.084,4.1Z"></path><g transform="translate(425.445 226.317)"><path class="b" d="M455.234,252.707a2.719,2.719,0,0,1-2.941,2.727,2.733,2.733,0,1,1,2.941-2.727ZM449.6,275.125v-17.54h5.451v17.54Z" transform="translate(-449.46 -249.98)"></path><path class="b" d="M486.584,286.569c0-2.187-.071-4.016-.144-5.6h4.735l.252,2.439h.108a6.3,6.3,0,0,1,5.416-2.833c3.587,0,6.276,2.4,6.276,7.568v10.366h-5.451v-9.72c0-2.26-.79-3.8-2.762-3.8a3,3,0,0,0-2.8,2.043,3.914,3.914,0,0,0-.179,1.362v10.116h-5.451V286.569Z" transform="translate(-477.724 -273.368)"></path></g></g></svg> 