<?xml version="1.0" encoding="UTF-8"?> <svg xmlns="http://www.w3.org/2000/svg" width="27.794" height="27.794" viewBox="0 0 27.794 27.794"><defs><style>.a{fill:#fff;}</style></defs><path class="a" d="M25.809,32H1.979A1.994,1.994,0,0,0,0,34V57.79a1.994,1.994,0,0,0,1.979,2h23.83a2,2,0,0,0,1.985-2V34A2,2,0,0,0,25.809,32ZM8.4,55.823H4.281V42.559H8.406V55.823ZM6.341,40.748a2.389,2.389,0,1,1,2.389-2.389A2.39,2.39,0,0,1,6.341,40.748Zm17.5,15.076H19.723V49.371c0-1.539-.031-3.518-2.14-3.518-2.147,0-2.475,1.675-2.475,3.406v6.564H10.987V42.559h3.952v1.812H15a4.339,4.339,0,0,1,3.9-2.14c4.169,0,4.945,2.748,4.945,6.322Z" transform="translate(0 -32)"></path></svg> 