<?xml version="1.0" encoding="UTF-8"?> <svg xmlns="http://www.w3.org/2000/svg" width="27.616" height="27.616" viewBox="0 0 27.616 27.616"><defs><style>.a{fill:#fff;}</style></defs><path class="a" d="M11.515,42.486l5.868,3.335-5.868,3.335Zm16.1-7.527v21.7a2.96,2.96,0,0,1-2.959,2.959H2.959A2.96,2.96,0,0,1,0,56.657v-21.7A2.96,2.96,0,0,1,2.959,32h21.7A2.96,2.96,0,0,1,27.616,34.959ZM25.027,45.827a29.62,29.62,0,0,0-.468-5.437,2.814,2.814,0,0,0-1.985-2c-1.745-.475-8.766-.475-8.766-.475s-7.021,0-8.766.475a2.814,2.814,0,0,0-1.985,2,31.783,31.783,0,0,0,0,10.874A2.773,2.773,0,0,0,5.042,53.23c1.745.468,8.766.468,8.766.468s7.021,0,8.766-.475a2.773,2.773,0,0,0,1.985-1.966,29.529,29.529,0,0,0,.468-5.431Z" transform="translate(0 -32)"></path></svg> 